<svg width="25" height="30"  viewBox="0 -14 30 50" fill="none" xmlns="http://www.w3.org/2000/svg">
<path d="M15.625 8.33333C17.9167 8.33333 19.7917 6.45833 19.7917 4.16667C19.7917 1.875 17.9167 0 15.625 0C13.3333 0 11.4583 1.875 11.4583 4.16667C11.4583 6.45833 13.3333 8.33333 15.625 8.33333ZM7.91667 15.4167L2.58333 42.3125C2.3125 43.5833 3.3125 44.7917 4.625 44.7917H4.79167C5.77083 44.7917 6.60417 44.125 6.83333 43.1667L10.2083 28.125L14.5833 32.2917V42.7083C14.5833 43.8542 15.5208 44.7917 16.6667 44.7917C17.8125 44.7917 18.75 43.8542 18.75 42.7083V30.9583C18.75 29.8125 18.2917 28.7292 17.4583 27.9375L14.375 25L15.625 18.75C17.9728 21.434 21.1867 23.2105 24.7083 23.7708C25.9583 23.9583 27.0833 22.9583 27.0833 21.6875C27.0833 20.6667 26.3333 19.8125 25.3125 19.6458C22.1458 19.125 19.5208 17.25 18.125 14.7917L16.0417 11.4583C15.479 10.5587 14.6146 9.88856 13.6031 9.56793C12.5916 9.2473 11.499 9.29707 10.5208 9.70833L2.54167 13.0833C1.7869 13.4059 1.14359 13.9433 0.691705 14.6285C0.239818 15.3137 -0.000716013 16.1167 1.60103e-06 16.9375V21.875C1.60103e-06 23.0208 0.937501 23.9583 2.08333 23.9583C3.22917 23.9583 4.16667 23.0208 4.16667 21.875V16.875L7.91667 15.4167Z" fill="#002B5B"/>
</svg>
