<svg width="25" height="30" viewBox="0 -15 80 80" fill="none" xmlns="http://www.w3.org/2000/svg">
<g clip-path="url(#clip0_114_79)">
<path fill-rule="evenodd" clip-rule="evenodd" d="M47.313 9.61682C54.9797 8.62016 62.173 10.3168 66.1297 14.2735C68.763 16.9102 70.063 19.9768 69.9963 23.3402C69.9397 26.5435 68.6463 29.6535 66.8697 32.5535C64.3297 36.7035 60.363 41.0968 55.9697 45.6035L53.5397 48.0702L48.153 53.4602L45.8497 55.7335C41.2563 60.2202 36.7763 64.2868 32.553 66.8702C29.653 68.6468 26.543 69.9368 23.3397 70.0002C19.9763 70.0668 16.9097 68.7668 14.273 66.1302C10.3163 62.1735 8.61967 54.9802 9.61633 47.3135C10.6397 39.4468 14.5197 30.5302 22.523 22.5235C30.5297 14.5235 39.4497 10.6402 47.313 9.61682ZM18.9697 38.8835C17.8372 41.3095 17.0065 43.8652 16.4963 46.4935C17.8963 47.6935 19.5597 48.6202 21.4697 49.2602C22.3086 49.54 23.2244 49.475 24.0155 49.0796C24.8066 48.6842 25.4082 47.9908 25.688 47.1518C25.9678 46.3129 25.9029 45.3971 25.5075 44.606C25.1121 43.8149 24.4186 43.2133 23.5797 42.9335C21.3563 42.1935 19.873 40.8935 18.9697 38.8802V38.8835ZM28.9697 25.5968C27.2895 27.1108 25.7231 28.7463 24.283 30.4902C24.9297 31.3268 25.6363 32.1202 26.353 32.8368C28.303 34.7835 30.7963 36.6535 33.253 37.4702C34.0605 37.7428 34.9418 37.6958 35.7157 37.3387C36.4896 36.9817 37.0973 36.3418 37.414 35.5505C37.7307 34.7592 37.7322 33.8767 37.4184 33.0843C37.1045 32.292 36.499 31.6499 35.7263 31.2902L35.363 31.1468C34.2863 30.7902 32.6563 29.7135 31.0697 28.1235C30.2897 27.3511 29.5864 26.5049 28.9697 25.5968ZM43.703 17.1635C41.643 17.7568 39.5063 18.5968 37.3463 19.7235C39.0797 22.5468 41.6763 24.5635 45.0397 25.6868C45.4565 25.8321 45.8981 25.8931 46.3387 25.8663C46.7794 25.8395 47.2103 25.7255 47.6065 25.5308C48.0027 25.3362 48.3563 25.0647 48.6468 24.7323C48.9372 24.3998 49.1588 24.013 49.2985 23.5942C49.4382 23.1755 49.4934 22.7331 49.4608 22.2929C49.4282 21.8526 49.3084 21.4232 49.1085 21.0296C48.9086 20.636 48.6325 20.2861 48.2962 20.0001C47.96 19.714 47.5702 19.4977 47.1497 19.3635C45.703 18.8802 44.5697 18.1635 43.703 17.1635Z" fill="#002B5B"/>
</g>
<defs>
<clipPath id="clip0_114_79">
<rect width="80" height="80" fill="white"/>
</clipPath>
</defs>
</svg>
