<svg width="25px" height="25px" viewBox="0 0 50 50" fill="none" xmlns="http://www.w3.org/2000/svg">
<path fill-rule="evenodd" clip-rule="evenodd" d="M25.0001 2.08325C25.5526 2.08325 26.0825 2.30275 26.4732 2.69345C26.8639 3.08415 27.0834 3.61405 27.0834 4.16659V8.24367C27.148 8.97284 27.2272 9.702 27.3105 10.4291C27.7741 10.4798 28.2074 10.6845 28.5408 11.0106C28.8742 11.3367 29.0886 11.7653 29.1496 12.2277C29.2106 12.6901 29.1146 13.1596 28.8771 13.561C28.6396 13.9623 28.2743 14.2724 27.8397 14.4416L27.9709 15.3041C28.5438 18.9749 29.4105 23.3666 30.6418 27.0833H31.2501C31.7162 27.0831 32.1688 27.2392 32.5357 27.5267C32.9025 27.8141 33.1624 28.2163 33.2738 28.6689C33.3851 29.1214 33.3415 29.5983 33.1499 30.0231C32.9582 30.448 32.6297 30.7963 32.2168 31.0124C32.5876 31.7957 32.9876 32.5708 33.4043 33.3333H35.4168C35.9288 33.3315 36.4235 33.5183 36.8066 33.8581C37.1896 34.1979 37.4341 34.6669 37.4933 35.1755C37.5526 35.6841 37.4225 36.1967 37.1278 36.6154C36.8332 37.0342 36.3947 37.3298 35.8959 37.4458C37.5001 39.8791 39.2355 42.2583 41.1522 44.4603C41.4161 44.7616 41.5876 45.1325 41.6462 45.5287C41.7047 45.9249 41.6478 46.3296 41.4823 46.6943C41.3167 47.059 41.0496 47.3683 40.7128 47.585C40.3761 47.8018 39.9839 47.9169 39.5834 47.9166H31.2501C30.8975 47.9167 30.5506 47.8273 30.242 47.6567C29.9334 47.4862 29.6731 47.2401 29.4855 46.9416L29.3584 46.7062C29.0785 46.1512 28.7113 45.6448 28.2709 45.2062C27.5084 44.4249 26.4522 43.7499 25.0001 43.7499C23.548 43.7499 22.4918 44.4249 21.7293 45.2062C21.3811 45.5583 21.0762 45.9506 20.8209 46.3749L20.6418 46.7062C20.475 47.0675 20.2082 47.3736 19.873 47.5881C19.5378 47.8026 19.1481 47.9166 18.7501 47.9166H10.4168C10.0162 47.9165 9.6242 47.8009 9.28765 47.5837C8.9511 47.3665 8.6843 47.0569 8.5192 46.692C8.3541 46.327 8.2977 45.9222 8.35675 45.5261C8.41581 45.1299 8.58782 44.7592 8.85218 44.4583C10.7668 42.2541 12.498 39.8812 14.1043 37.4458C13.6055 37.3298 13.167 37.0342 12.8724 36.6154C12.5777 36.1967 12.4476 35.6841 12.5069 35.1755C12.5661 34.6669 12.8106 34.1979 13.1936 33.8581C13.5767 33.5183 14.0714 33.3315 14.5834 33.3333H16.5959C17.0126 32.5708 17.4126 31.7937 17.7834 31.0124C17.3705 30.7963 17.042 30.448 16.8503 30.0231C16.6587 29.5983 16.6151 29.1214 16.7264 28.6689C16.8378 28.2163 17.0977 27.8141 17.4645 27.5267C17.8314 27.2392 18.284 27.0831 18.7501 27.0833H19.3584C20.4522 23.7812 21.2605 19.9416 21.8272 16.552L22.1605 14.4416C21.7259 14.2724 21.3606 13.9623 21.1231 13.561C20.8856 13.1596 20.7896 12.6901 20.8506 12.2277C20.9116 11.7653 21.126 11.3367 21.4594 11.0106C21.7928 10.6845 22.2261 10.4798 22.6897 10.4291C22.773 9.69992 22.8522 8.97075 22.9188 8.24159V4.16659C22.9188 3.61405 23.1383 3.08415 23.529 2.69345C23.9197 2.30275 24.4476 2.08325 25.0001 2.08325ZM27.7563 31.2499H22.2438L21.7813 32.2978L21.2897 33.3333H28.7105L28.2188 32.2978L27.7563 31.2499Z" fill="#002B5B"/>
</svg>
