<svg width="50" height="50" viewBox="0 0 60 63" fill="none" xmlns="http://www.w3.org/2000/svg">
<path d="M54.375 9.84375H5.625C4.58789 9.84375 3.75 10.7235 3.75 11.8125V51.1875C3.75 52.2765 4.58789 53.1562 5.625 53.1562H54.375C55.4121 53.1562 56.25 52.2765 56.25 51.1875V11.8125C56.25 10.7235 55.4121 9.84375 54.375 9.84375ZM52.0312 48.7266H7.96875V46.2718L16.084 36.1635L24.8789 47.1146L38.5605 30.085L52.0312 46.8562V48.7266ZM52.0312 40.7408L38.918 24.4125C38.7305 24.1787 38.3906 24.1787 38.2031 24.4125L24.8789 40.9992L16.4414 30.4972C16.2539 30.2634 15.9141 30.2634 15.7266 30.4972L7.96875 40.1563V14.2734H52.0312V40.7408ZM17.8125 28.0547C18.4896 28.0547 19.1601 27.9146 19.7857 27.6426C20.4113 27.3705 20.9797 26.9717 21.4585 26.4689C21.9373 25.9662 22.3171 25.3694 22.5763 24.7125C22.8354 24.0556 22.9688 23.3516 22.9688 22.6406C22.9688 21.9296 22.8354 21.2256 22.5763 20.5688C22.3171 19.9119 21.9373 19.315 21.4585 18.8123C20.9797 18.3096 20.4113 17.9108 19.7857 17.6387C19.1601 17.3666 18.4896 17.2266 17.8125 17.2266C16.445 17.2266 15.1335 17.797 14.1665 18.8123C13.1995 19.8276 12.6562 21.2047 12.6562 22.6406C12.6562 24.0765 13.1995 25.4536 14.1665 26.4689C15.1335 27.4843 16.445 28.0547 17.8125 28.0547ZM17.8125 20.918C18.7207 20.918 19.4531 21.687 19.4531 22.6406C19.4531 23.5942 18.7207 24.3633 17.8125 24.3633C16.9043 24.3633 16.1719 23.5942 16.1719 22.6406C16.1719 21.687 16.9043 20.918 17.8125 20.918Z" fill="#002B5B"/>
</svg>