<svg width="25" height="25" viewBox="0 -10 80 80" fill="none" xmlns="http://www.w3.org/2000/svg">
<path d="M9.99968 33.3331C10.0607 31.2922 10.6444 29.3011 11.6949 27.5503C12.7454 25.7994 14.2276 24.3474 15.9997 23.3331C16.4246 20.4296 17.8818 17.7765 20.1042 15.8602C22.3266 13.944 25.1652 12.8929 28.0997 12.8998C29.225 12.8978 30.3456 13.0435 31.433 13.3331C33.7274 11.1426 36.7775 9.92041 39.9497 9.92041C43.1218 9.92041 46.172 11.1426 48.4663 13.3331C49.5537 13.0435 50.6744 12.8978 51.7997 12.8998C54.7456 12.8768 57.6003 13.9205 59.8366 15.8383C62.073 17.756 63.5398 20.4182 63.9663 23.3331C65.7446 24.3433 67.2335 25.7935 68.29 27.5446C69.3465 29.2957 69.9352 31.289 69.9997 33.3331C70.8837 33.3331 71.7316 33.6843 72.3567 34.3094C72.9818 34.9346 73.333 35.7824 73.333 36.6665C73.3329 42.5175 71.7926 48.2655 68.867 53.3326C65.9414 58.3998 61.7335 62.6076 56.6663 65.5331V69.9998C56.6663 70.8838 56.3152 71.7317 55.69 72.3568C55.0649 72.9819 54.2171 73.3331 53.333 73.3331H26.6663C25.7823 73.3331 24.9344 72.9819 24.3093 72.3568C23.6842 71.7317 23.333 70.8838 23.333 69.9998V65.5331C18.2658 62.6076 14.058 58.3998 11.1324 53.3326C8.20677 48.2655 6.66649 42.5175 6.66634 36.6665C6.66634 35.7824 7.01753 34.9346 7.64265 34.3094C8.26777 33.6843 9.11562 33.3331 9.99968 33.3331ZM63.333 33.3331C63.2483 32.28 62.8508 31.2762 62.1916 30.4506C61.5323 29.625 60.6413 29.0153 59.633 28.6998L56.8663 27.8331L57.3997 24.9998C57.391 24.2819 57.2409 23.5727 56.9581 22.9128C56.6754 22.2529 56.2653 21.6551 55.7515 21.1537C55.2377 20.6522 54.6301 20.2569 53.9635 19.9903C53.2969 19.7237 52.5842 19.591 51.8663 19.5998C50.9037 19.5943 49.9542 19.8231 49.0997 20.2665L46.3997 21.7665L44.733 19.1998C44.2118 18.4229 43.5073 17.7863 42.6818 17.3461C41.8564 16.9058 40.9352 16.6756 39.9997 16.6756C39.0641 16.6756 38.143 16.9058 37.3175 17.3461C36.492 17.7863 35.7876 18.4229 35.2663 19.1998L33.5997 21.7665L30.8997 20.2665C30.0452 19.8231 29.0957 19.5943 28.133 19.5998C26.6912 19.5817 25.3 20.1304 24.2589 21.1279C23.2177 22.1254 22.6099 23.4919 22.5663 24.9331L23.0997 27.7665L20.3663 28.6998C19.358 29.0153 18.4671 29.625 17.8078 30.4506C17.1485 31.2762 16.751 32.28 16.6663 33.3331H63.333Z" fill="#002B5B"/>
</svg>
