<svg width="25" height="25" viewBox="0 0 44 45" fill="none" xmlns="http://www.w3.org/2000/svg">
<path d="M18.94 19.1967C17.2567 16.78 16.3367 15.46 16.84 11.2767C17.3033 7.42333 19.1 5.89 20.8333 4.41333C22.18 3.26333 23.49 2.14667 24.1033 0C25.1067 2.40667 23.9833 4.9 22.94 7.21333C21.9033 9.51667 20.9433 11.6433 22.2367 13.3333C25.4733 17.57 28.78 22.9333 25.4733 28.62C24.76 29.93 23.6767 30.89 22.6033 31.8467C21.1967 33.0967 19.8 34.3367 19.2567 36.34C18.36 34.0833 19.2833 31.7867 20.2067 29.5C21.2267 26.97 22.24 24.4467 20.78 21.9967C20.1033 20.8633 19.48 19.9733 18.94 19.1967ZM30.1767 15.2833C29.8469 13.1912 30.2824 11.0503 31.4033 9.25333C32.6267 7.75333 33.74 7.11333 34.7067 6.55333C35.8567 5.89 36.7967 5.34667 37.4733 3.63C38.4367 5.91 37.4733 7.59 36.46 9.35667C36.0633 10.0467 35.66 10.75 35.3633 11.5067C34.7267 13.54 35.7 14.4833 36.92 15.6633C38.1133 16.8167 39.54 18.1967 39.9167 21.0533C40.2213 23.0137 39.7787 25.017 38.6767 26.6667C37.49 28.12 36.4067 28.85 35.46 29.4867C34.2733 30.2867 33.3 30.9433 32.6067 32.7033C31.6333 30.41 32.71 28.5067 33.7833 26.61C34.1933 25.8867 34.6033 25.1633 34.8967 24.4167C35.14 22.5567 34.1167 21.5267 32.96 20.36C31.77 19.16 30.4333 17.8167 30.1767 15.2833ZM3.45 15.2833C3.12333 13.1767 3.46667 10.95 4.67667 9.25333C5.93 7.49333 7.10667 6.86333 8.12667 6.31667C9.20333 5.74 10.1067 5.25667 10.7467 3.63C11.71 5.90667 10.7 7.65667 9.66333 9.46C9.25667 10.1667 8.84333 10.8833 8.54333 11.6433C8.03667 12.9267 8.98 15.0233 10.2133 15.7833C13.5533 18.4533 14.3033 23.4033 12.0367 26.96C10.8167 28.4533 9.69 29.12 8.70667 29.7033C7.53 30.4 6.55667 30.9767 5.87667 32.6967C4.95 30.51 5.90333 28.7633 6.87667 26.9833C7.31333 26.1833 7.75333 25.38 8.02667 24.5267C8.62333 22.67 7.58 21.58 6.32667 20.27C5.16333 19.0533 3.82 17.6533 3.45 15.2767V15.2833ZM40 29.9967C42.3333 38.7167 28.42 39.9967 21.6667 39.9967C14.9133 39.9967 1 38.3833 3.33333 29.9967C1.22333 31.05 0 33.2 0 34.9967C0 40.06 9.7 44.6633 21.6667 44.6633C33.6333 44.6633 43.3333 40.06 43.3333 34.9967C43.3333 33.2 42.11 31.05 40 29.9967Z" fill="#002B5B"/>
</svg>
