<svg width="200" height="201" viewBox="0 0 200 201" fill="none" xmlns="http://www.w3.org/2000/svg">
<path d="M123.412 74.668L179.694 93.1501C190.9 96.8436 196.88 109.278 193.062 120.945L173.831 179.508C169.989 191.168 157.801 197.637 146.589 193.969L90.3053 175.486C79.1 171.793 73.1198 159.358 76.9376 147.691L96.1688 89.128C100.011 77.4683 112.199 70.9994 123.411 74.6676L123.412 74.6679L123.412 74.668ZM149.466 185.201C156.027 187.348 163.157 183.563 165.405 176.742L184.636 118.179C186.87 111.353 183.371 104.078 176.816 101.917L120.533 83.4349C113.973 81.2887 106.842 85.0734 104.595 91.8942L85.3634 150.457C83.1296 157.283 86.6282 164.558 93.1834 166.719L93.184 166.719L149.466 185.201ZM143.305 109.026C156.73 113.434 163.894 128.332 159.307 142.3C154.72 156.269 140.119 164.019 126.694 159.61C113.27 155.202 106.105 140.304 110.692 126.336C115.294 112.38 129.882 104.637 143.304 109.025L143.305 109.026ZM129.573 150.844C138.345 153.724 147.885 148.66 150.882 139.534C153.879 130.407 149.198 120.673 140.427 117.793C131.655 114.912 122.115 119.976 119.118 129.103C116.132 138.229 120.809 147.954 129.572 150.843L129.573 150.844ZM176.067 117.696C174.931 121.158 171.312 123.079 167.985 121.986C164.658 120.894 162.882 117.202 164.019 113.74C165.156 110.278 168.775 108.357 172.102 109.45C175.429 110.542 177.204 114.234 176.067 117.696Z" fill="black"/>
<path d="M0 0H98V105H0V0ZM89.4783 9.13039H8.52179V95.8696H89.4783V9.13039ZM7.27344 90.6059L1.24845 84.1506L32.7193 50.4319L57.1341 76.5449L73.4148 59.1012L96.7517 84.1597L90.7183 90.6104L73.4064 72.0252L57.134 89.4599L32.7192 63.3469L7.27344 90.6059ZM57.1383 21.7761C63.9862 21.7761 69.5374 27.7239 69.5374 35.0609C69.5374 42.3979 63.9862 48.3456 57.1383 48.3456C50.2905 48.3456 44.7393 42.3979 44.7393 35.0609C44.7465 27.7271 50.2934 21.7839 57.1376 21.7761H57.1383ZM57.1383 39.2152C59.2798 39.2152 61.0157 37.3552 61.0157 35.0609C61.0157 32.7666 59.2797 30.9065 57.1383 30.9065C54.9969 30.9065 53.2609 32.7666 53.2609 35.0609C53.2633 37.3543 54.9979 39.2127 57.138 39.2152H57.1383Z" fill="black"/>
</svg>
