<svg width="70" height="70" viewBox="0 0 71 74" fill="none" xmlns="http://www.w3.org/2000/svg">
<path d="M21.25 25.1359L2.5 37.9949C0.937501 39.0808 0 40.7667 0 42.567V68.2849C0 71.4282 2.8125 74 6.25 74H43.75C47.1875 74 50 71.4282 50 68.2849V42.567C50 40.7667 49.0625 39.0808 47.5 37.9949L28.75 25.1359C27.6661 24.3983 26.3511 24 25 24C23.6489 24 22.3339 24.3983 21.25 25.1359ZM26.5625 49.7108C26.5625 52.0826 24.4688 53.9972 21.875 53.9972V63.9986C21.875 64.7987 21.1875 65.4274 20.3125 65.4274C19.4375 65.4274 18.75 64.7987 18.75 63.9986V53.9972C16.1562 53.9972 14.0625 52.0826 14.0625 49.7108V42.567C14.0625 41.7669 14.75 41.1382 15.625 41.1382C16.5 41.1382 17.1875 41.7669 17.1875 42.567V49.7108H18.75V42.567C18.75 41.7669 19.4375 41.1382 20.3125 41.1382C21.1875 41.1382 21.875 41.7669 21.875 42.567V49.7108H23.4375V42.567C23.4375 41.7669 24.125 41.1382 25 41.1382C25.875 41.1382 26.5625 41.7669 26.5625 42.567V49.7108ZM32.8125 65.4274C31.9375 65.4274 31.25 64.7987 31.25 63.9986V55.4259H29.6875C28.8125 55.4259 28.125 54.7973 28.125 53.9972V46.8533C28.125 44.3387 29.9062 42.1955 32.375 41.4525C33.3438 41.1382 34.375 41.8526 34.375 42.8242V63.9986C34.375 64.7987 33.6875 65.4274 32.8125 65.4274Z" fill="#002B5B"/>
<path d="M55.5909 37.0114V18.2614H58.7727V37.0114H55.5909ZM47.8068 29.2273V26.0455H66.5568V29.2273H47.8068Z" fill="#002B5B"/>
</svg>
