<svg width="70" height="70" viewBox="0 0 68 89" fill="none" xmlns="http://www.w3.org/2000/svg">
<path d="M0 51.5V46.5H5.55556V44C5.55556 42.6739 6.14087 41.4021 7.18274 40.4645C8.22461 39.5268 9.63769 39 11.1111 39H27.7778V56.5L34.7222 52.75L41.6667 56.5V39H44.4444C47.3611 39 50 41.375 50 44V84C50 86.625 47.3611 89 44.4444 89H11.1111C8.19444 89 5.55556 86.625 5.55556 84V81.5H0V76.5H5.55556V66.5H0V61.5H5.55556V51.5H0ZM11.1111 61.5H5.55556V66.5H11.1111V61.5ZM11.1111 51.5V46.5H5.55556V51.5H11.1111ZM11.1111 81.5V76.5H5.55556V81.5H11.1111Z" fill="#002B5B"/>
<path d="M56.5909 37.0114V18.2614H59.7727V37.0114H56.5909ZM48.8068 29.2273V26.0455H67.5568V29.2273H48.8068Z" fill="#002B5B"/>
</svg>
