<svg width="70" height="70" viewBox="0 0 80 80" fill="none" xmlns="http://www.w3.org/2000/svg">
<g clip-path="url(#clip0_454_3)">
<path d="M57.7011 51.2437C61.2787 52.6186 63.4483 54.4224 63.4483 56.4003C63.4483 60.707 53.1552 64.1975 40.4598 64.1975C27.7644 64.1975 17.4713 60.707 17.4713 56.4003C17.4713 54.425 19.6408 52.616 23.2184 51.2437" stroke="#002B5B" stroke-width="2" stroke-linecap="round" stroke-linejoin="round"/>
<path fill-rule="evenodd" clip-rule="evenodd" d="M42.5805 55.5556L42.5948 55.5426L42.6293 55.5062L42.7586 55.3762L43.2356 54.8928C45.6234 52.4331 47.8752 49.8682 49.9827 47.2073C51.8276 44.8681 53.7184 42.217 55.158 39.5842C56.5661 37.011 57.7011 34.1806 57.7011 31.5634C57.7011 22.2768 50.1782 14.8148 40.4598 14.8148C30.7414 14.8148 23.2184 22.2742 23.2184 31.5634C23.2184 34.1806 24.3534 37.011 25.7615 39.5842C27.2011 42.217 29.0948 44.8681 30.9339 47.2073C33.1823 50.0434 35.5947 52.7702 38.1609 55.3762L38.2902 55.5062L38.3247 55.5426L38.3391 55.5556C38.6083 55.8219 38.9359 56.0346 39.301 56.1801C39.6662 56.3256 40.0608 56.4008 40.4598 56.4008C40.8588 56.4008 41.2534 56.3256 41.6185 56.1801C41.9836 56.0346 42.3112 55.8219 42.5805 55.5556ZM40.4598 25.2112C38.9355 25.2112 37.4737 25.7588 36.3959 26.7337C35.3181 27.7085 34.7126 29.0307 34.7126 30.4094C34.7126 31.788 35.3181 33.1102 36.3959 34.085C37.4737 35.0599 38.9355 35.6075 40.4598 35.6075C41.984 35.6075 43.4458 35.0599 44.5236 34.085C45.6014 33.1102 46.2069 31.788 46.2069 30.4094C46.2069 29.0307 45.6014 27.7085 44.5236 26.7337C43.4458 25.7588 41.984 25.2112 40.4598 25.2112Z" fill="#002B5B"/>
<path d="M69.5909 28.0114V9.26136H72.7727V28.0114H69.5909ZM61.8068 20.2273V17.0455H80.5568V20.2273H61.8068Z" fill="#002B5B"/>
</g>
<defs>
<clipPath id="clip0_454_3">
<rect width="80" height="70" fill="white"/>
</clipPath>
</defs>
</svg>
