<svg width="25" height="25" viewBox="0 -10 50 50" fill="none" xmlns="http://www.w3.org/2000/svg">
<path d="M10.0833 41.6667V37.5H22.5833V29.1667H18.4167C15.5347 29.1667 13.0778 28.1507 11.0458 26.1187C9.01389 24.0868 7.99861 21.6306 8 18.75C8 16.6667 8.57292 14.7479 9.71875 12.9938C10.8646 11.2396 12.4097 9.96389 14.3542 9.16667C14.6667 6.5625 15.8042 4.38334 17.7667 2.62917C19.7292 0.875002 22.0292 -0.00138724 24.6667 1.64821e-06C27.3056 1.64821e-06 29.6063 0.877085 31.5688 2.63125C33.5312 4.38542 34.6681 6.56389 34.9792 9.16667C36.9236 9.96528 38.4688 11.2417 39.6146 12.9958C40.7604 14.75 41.3333 16.6681 41.3333 18.75C41.3333 21.6319 40.3174 24.0889 38.2854 26.1208C36.2535 28.1528 33.7972 29.1681 30.9167 29.1667H26.75V37.5H39.25V41.6667H10.0833Z" fill="#002B5B"/>
</svg>
