<svg width="25" height="25" viewBox="0 -5 50 50" fill="none" xmlns="http://www.w3.org/2000/svg">
<path d="M16.2503 4.16675H33.7503C40.417 4.16675 45.8337 9.58342 45.8337 16.2501V33.7501C45.8337 36.9548 44.5606 40.0282 42.2945 42.2943C40.0285 44.5604 36.955 45.8334 33.7503 45.8334H16.2503C9.58366 45.8334 4.16699 40.4167 4.16699 33.7501V16.2501C4.16699 13.0454 5.44005 9.97194 7.70612 7.70587C9.97218 5.43981 13.0456 4.16675 16.2503 4.16675ZM15.8337 8.33341C13.8445 8.33341 11.9369 9.12359 10.5304 10.5301C9.12384 11.9366 8.33366 13.8443 8.33366 15.8334V34.1667C8.33366 38.3126 11.6878 41.6667 15.8337 41.6667H34.167C36.1561 41.6667 38.0638 40.8766 39.4703 39.4701C40.8768 38.0635 41.667 36.1559 41.667 34.1667V15.8334C41.667 11.6876 38.3128 8.33341 34.167 8.33341H15.8337ZM35.9378 11.4584C36.6285 11.4584 37.2909 11.7328 37.7793 12.2212C38.2676 12.7095 38.542 13.3719 38.542 14.0626C38.542 14.7532 38.2676 15.4156 37.7793 15.904C37.2909 16.3924 36.6285 16.6667 35.9378 16.6667C35.2472 16.6667 34.5848 16.3924 34.0964 15.904C33.608 15.4156 33.3337 14.7532 33.3337 14.0626C33.3337 13.3719 33.608 12.7095 34.0964 12.2212C34.5848 11.7328 35.2472 11.4584 35.9378 11.4584ZM25.0003 14.5834C27.763 14.5834 30.4125 15.6809 32.366 17.6344C34.3195 19.5879 35.417 22.2374 35.417 25.0001C35.417 27.7628 34.3195 30.4123 32.366 32.3658C30.4125 34.3193 27.763 35.4167 25.0003 35.4167C22.2377 35.4167 19.5881 34.3193 17.6346 32.3658C15.6811 30.4123 14.5837 27.7628 14.5837 25.0001C14.5837 22.2374 15.6811 19.5879 17.6346 17.6344C19.5881 15.6809 22.2377 14.5834 25.0003 14.5834ZM25.0003 18.7501C23.3427 18.7501 21.753 19.4086 20.5809 20.5807C19.4088 21.7528 18.7503 23.3425 18.7503 25.0001C18.7503 26.6577 19.4088 28.2474 20.5809 29.4195C21.753 30.5916 23.3427 31.2501 25.0003 31.2501C26.6579 31.2501 28.2476 30.5916 29.4197 29.4195C30.5918 28.2474 31.2503 26.6577 31.2503 25.0001C31.2503 23.3425 30.5918 21.7528 29.4197 20.5807C28.2476 19.4086 26.6579 18.7501 25.0003 18.7501Z" fill="#002B5B"/>
</svg>
