<svg width="25" height="25" viewBox="0 0 47 47" fill="none" xmlns="http://www.w3.org/2000/svg">
<path d="M46.875 0C46.875 0 38.5406 1.95391 23.4375 1.95391C8.33594 1.95391 0 0 0 0L0.616406 3.90547C0.616406 3.90547 0.946875 3.98672 1.58906 4.11562L2.12812 7.11562L2.60781 7.22031C2.70391 7.24141 3.53359 7.41641 5.05781 7.64219V9.52266H5.85938V12.6828C4.42422 12.2562 3.6625 11.7188 3.6625 11.7188L3.8375 14.6484H2.19766V19.7758H5.85938V37.3539H4.63906V39.5516H3.6625V46.875H15.3812V39.5508H14.4039V37.3531H13.1836V19.775H33.6914V37.3531H32.4703V39.5508H31.4937V46.875H43.2125V39.5508H42.2359V37.3531H41.0156V19.775H44.6781V14.6484H43.0383L43.2133 11.7188C43.2133 11.7188 42.4508 12.2563 41.0156 12.6813V9.52109H41.6797V7.66016C43.2891 7.42578 44.1688 7.24062 44.2672 7.21953L44.7469 7.11484L45.2859 4.11484C45.9297 3.98594 46.2602 3.90469 46.2602 3.90469L46.875 0ZM21.2406 8.77344V14.6484H15.2063L15.3812 11.7188C15.3812 11.7188 14.6187 12.2563 13.1836 12.6813V9.52109H13.8477V8.50938C16.0086 8.64141 18.4672 8.73906 21.2406 8.77344ZM11.7188 9.52187V13.0141C11.0664 13.1211 10.3359 13.1922 9.52109 13.1922C8.70625 13.1922 7.97578 13.1211 7.32344 13.0133V9.52187H11.7188ZM11.7188 37.3539H7.32422V19.7758H11.7188V37.3539ZM39.5508 37.3539H35.1562V19.7758H39.5508V37.3539ZM43.2133 16.1133V18.3109H3.6625V16.1133H43.2133ZM35.1562 13.0125V9.52109H39.5508V13.0133C38.8984 13.1203 38.168 13.1914 37.3531 13.1914C36.5383 13.1914 35.8086 13.1203 35.1562 13.0125ZM33.6914 9.52187V12.682C32.2562 12.2562 31.4945 11.7188 31.4945 11.7188L31.6695 14.6484H25.6352V8.77344C28.0553 8.74539 30.4745 8.65995 32.8906 8.51719V9.52109L33.6914 9.52187ZM43.4938 5.79141C41.6891 6.12422 34.8172 7.23594 23.4375 7.23594C12.0742 7.23594 5.18906 6.12422 3.38125 5.79141L3.13047 4.39766C6.54219 4.97656 13.3883 5.85938 23.4375 5.85938C33.4859 5.85938 40.332 4.97656 43.7438 4.39766L43.4938 5.79141Z" fill="#002B5B"/>
</svg>
