<svg width="50" height="50" viewBox="0 0 49 56" fill="none" xmlns="http://www.w3.org/2000/svg">
<path d="M24.4797 4.66666C13.2097 4.66666 4.0835 15.12 4.0835 28C4.0835 40.88 13.2097 51.3333 24.4797 51.3333C35.7702 51.3333 44.9168 40.88 44.9168 28C44.9168 15.12 35.7702 4.66666 24.4797 4.66666ZM24.5002 46.6667C15.476 46.6667 8.16683 38.3133 8.16683 28C8.16683 17.6867 15.476 9.33332 24.5002 9.33332C33.5243 9.33332 40.8335 17.6867 40.8335 28C40.8335 38.3133 33.5243 46.6667 24.5002 46.6667Z" fill="#002B5B"/>
<path d="M25.521 16.3333H22.4585V30.3333L33.1772 37.6833L34.7085 34.8133L25.521 28.5833V16.3333Z" fill="#002B5B"/>
</svg>