<svg width="50" height="50" viewBox="0 0 60 56" fill="none" xmlns="http://www.w3.org/2000/svg">
<path d="M30 9.33334H12.5C10.5109 9.33334 8.60322 10.0708 7.1967 11.3836C5.79018 12.6964 5 14.4768 5 16.3333V35C5 36.8565 5.79018 38.637 7.1967 39.9498C8.60322 41.2625 10.5109 42 12.5 42L10 44.3333V46.6667H12.5L17.5 41.93L22.5 42V30.3333H10V14H32.5V18.6667H37.5V16.3333C37.5 14.4768 36.7098 12.6964 35.3033 11.3836C33.8968 10.0708 31.9891 9.33334 30 9.33334ZM12.5 32.6667C13.163 32.6667 13.7989 32.9125 14.2678 33.3501C14.7366 33.7877 15 34.3812 15 35C15 35.6188 14.7366 36.2123 14.2678 36.6499C13.7989 37.0875 13.163 37.3333 12.5 37.3333C11.837 37.3333 11.2011 37.0875 10.7322 36.6499C10.2634 36.2123 10 35.6188 10 35C10 34.3812 10.2634 33.7877 10.7322 33.3501C11.2011 32.9125 11.837 32.6667 12.5 32.6667ZM51.425 22.54C51.075 21.6067 50.125 21 49 21H31.025C29.875 21 28.95 21.6067 28.575 22.54L25 32.13V44.9867C25 45.8733 25.8 46.6667 26.75 46.6667H28.3C29.25 46.6667 30 45.78 30 44.8933V42H50V44.8933C50 45.78 50.775 46.6667 51.725 46.6667H53.25C54.2 46.6667 55 45.8733 55 44.9867V32.13L51.425 22.54ZM31.025 23.3333H49L51.575 30.3333H28.45L31.025 23.3333ZM30 37.3333C29.337 37.3333 28.7011 37.0875 28.2322 36.6499C27.7634 36.2123 27.5 35.6188 27.5 35C27.5 34.3812 27.7634 33.7877 28.2322 33.3501C28.7011 32.9125 29.337 32.6667 30 32.6667C30.663 32.6667 31.2989 32.9125 31.7678 33.3501C32.2366 33.7877 32.5 34.3812 32.5 35C32.5 35.6188 32.2366 36.2123 31.7678 36.6499C31.2989 37.0875 30.663 37.3333 30 37.3333ZM50 37.3333C49.337 37.3333 48.7011 37.0875 48.2322 36.6499C47.7634 36.2123 47.5 35.6188 47.5 35C47.5 34.3812 47.7634 33.7877 48.2322 33.3501C48.7011 32.9125 49.337 32.6667 50 32.6667C50.663 32.6667 51.2989 32.9125 51.7678 33.3501C52.2366 33.7877 52.5 34.3812 52.5 35C52.5 35.6188 52.2366 36.2123 51.7678 36.6499C51.2989 37.0875 50.663 37.3333 50 37.3333Z" fill="#002B5B"/>
</svg>