<svg width="40" height="40" viewBox="0 0 181 189" fill="none" xmlns="http://www.w3.org/2000/svg">
<path d="M22.625 55.125V39.375H37.7083V31.5C37.7083 27.3228 39.2975 23.3168 42.1261 20.3631C44.9548 17.4094 48.7913 15.75 52.7917 15.75H98.0417V70.875L116.896 59.0625L135.75 70.875V15.75H143.292C151.21 15.75 158.375 23.2313 158.375 31.5V157.5C158.375 165.769 151.21 173.25 143.292 173.25H52.7917C44.8729 173.25 37.7083 165.769 37.7083 157.5V149.625H22.625V133.875H37.7083V102.375H22.625V86.625H37.7083V55.125H22.625ZM52.7917 86.625H37.7083V102.375H52.7917V86.625ZM52.7917 55.125V39.375H37.7083V55.125H52.7917ZM52.7917 149.625V133.875H37.7083V149.625H52.7917Z" fill="#002B5B"/>
</svg>
